<?xml version="1.0" encoding="UTF-8" standalone="no"?>
<!DOCTYPE svg PUBLIC "-//W3C//DTD SVG 1.1//EN"
 "http://www.w3.org/Graphics/SVG/1.1/DTD/svg11.dtd">
<!-- Generated by graphviz version 2.38.0 (20140413.2041)
 -->
<!-- Title: G Pages: 1 -->
<svg width="123pt" height="203pt"
 viewBox="0.00 0.00 122.61 203.00" xmlns="http://www.w3.org/2000/svg" xmlns:xlink="http://www.w3.org/1999/xlink">
<g id="graph0" class="graph" transform="scale(1 1) rotate(0) translate(4 199)">
<title>G</title>
<polygon fill="white" stroke="none" points="-4,4 -4,-199 118.607,-199 118.607,4 -4,4"/>
<g id="clust1" class="cluster"><title>cluster_Global</title>
<path fill="none" stroke="gray" d="M20,-8C20,-8 94.6069,-8 94.6069,-8 100.607,-8 106.607,-14 106.607,-20 106.607,-20 106.607,-175 106.607,-175 106.607,-181 100.607,-187 94.6069,-187 94.6069,-187 20,-187 20,-187 14,-187 8,-181 8,-175 8,-175 8,-20 8,-20 8,-14 14,-8 20,-8"/>
<text text-anchor="middle" x="57.3035" y="-174.2" font-family="Times,serif" font-size="11.00" fill="gray">Global</text>
</g>
<!-- \\Conexao -->
<g id="node1" class="node"><title>\\Conexao</title>
<polygon fill="none" stroke="black" points="84.9051,-160 29.7018,-160 29.7018,-124 84.9051,-124 84.9051,-160"/>
<text text-anchor="middle" x="57.3035" y="-138.7" font-family="Times,serif" font-size="11.00">Conexao</text>
</g>
<!-- \\FigurinhaDAO -->
<g id="node2" class="node"><title>\\FigurinhaDAO</title>
<polygon fill="none" stroke="black" points="98.4113,-106 16.1956,-106 16.1956,-70 98.4113,-70 98.4113,-106"/>
<text text-anchor="middle" x="57.3035" y="-84.7" font-family="Times,serif" font-size="11.00">FigurinhaDAO</text>
</g>
<!-- \\Usuario -->
<g id="node3" class="node"><title>\\Usuario</title>
<polygon fill="none" stroke="black" points="84.3035,-52 30.3035,-52 30.3035,-16 84.3035,-16 84.3035,-52"/>
<text text-anchor="middle" x="57.3035" y="-30.7" font-family="Times,serif" font-size="11.00">Usuario</text>
</g>
</g>
</svg>
