<?xml version="1.0" encoding="UTF-8" standalone="no"?>
<!DOCTYPE svg PUBLIC "-//W3C//DTD SVG 1.1//EN"
 "http://www.w3.org/Graphics/SVG/1.1/DTD/svg11.dtd">
<!-- Generated by graphviz version 2.38.0 (20140413.2041)
 -->
<!-- Title: G Pages: 1 -->
<svg width="99pt" height="257pt"
 viewBox="0.00 0.00 98.78 257.00" xmlns="http://www.w3.org/2000/svg" xmlns:xlink="http://www.w3.org/1999/xlink">
<g id="graph0" class="graph" transform="scale(1 1) rotate(0) translate(4 253)">
<title>G</title>
<polygon fill="white" stroke="none" points="-4,4 -4,-253 94.7754,-253 94.7754,4 -4,4"/>
<g id="clust1" class="cluster"><title>cluster_Global</title>
<path fill="none" stroke="gray" d="M20,-8C20,-8 70.7754,-8 70.7754,-8 76.7754,-8 82.7754,-14 82.7754,-20 82.7754,-20 82.7754,-229 82.7754,-229 82.7754,-235 76.7754,-241 70.7754,-241 70.7754,-241 20,-241 20,-241 14,-241 8,-235 8,-229 8,-229 8,-20 8,-20 8,-14 14,-8 20,-8"/>
<text text-anchor="middle" x="45.3877" y="-228.2" font-family="Times,serif" font-size="11.00" fill="gray">Global</text>
</g>
<!-- \\Conexao -->
<g id="node1" class="node"><title>\\Conexao</title>
<polygon fill="none" stroke="black" points="72.9894,-214 17.786,-214 17.786,-178 72.9894,-178 72.9894,-214"/>
<text text-anchor="middle" x="45.3877" y="-192.7" font-family="Times,serif" font-size="11.00">Conexao</text>
</g>
<!-- \\Figurinha -->
<g id="node2" class="node"><title>\\Figurinha</title>
<polygon fill="none" stroke="black" points="74.6635,-160 16.1119,-160 16.1119,-124 74.6635,-124 74.6635,-160"/>
<text text-anchor="middle" x="45.3877" y="-138.7" font-family="Times,serif" font-size="11.00">Figurinha</text>
</g>
<!-- \\Usuario -->
<g id="node3" class="node"><title>\\Usuario</title>
<polygon fill="none" stroke="black" points="72.3877,-106 18.3877,-106 18.3877,-70 72.3877,-70 72.3877,-106"/>
<text text-anchor="middle" x="45.3877" y="-84.7" font-family="Times,serif" font-size="11.00">Usuario</text>
</g>
<!-- \\Album -->
<g id="node4" class="node"><title>\\Album</title>
<polygon fill="none" stroke="black" points="72.3877,-52 18.3877,-52 18.3877,-16 72.3877,-16 72.3877,-52"/>
<text text-anchor="middle" x="45.3877" y="-30.7" font-family="Times,serif" font-size="11.00">Album</text>
</g>
</g>
</svg>
